<svg xmlns="http://www.w3.org/2000/svg" xml:space="preserve" id="logo" x="0" y="0" version="1.1" viewBox="0 0 1024 1024">
  <style>
    .st3{fill:none;stroke:#000;stroke-width:5;stroke-linecap:round;stroke-linejoin:round;stroke-miterlimit:10}
  </style>
  <g display="none">
    <path id="kor_teli" d="M512 75c59 0 116.2 11.5 170.1 34.3 52 22 98.8 53.5 138.9 93.7 40.2 40.2 71.7 86.9 93.7 138.9C937.5 395.8 949 453 949 512s-11.5 116.2-34.3 170.1c-22 52-53.5 98.8-93.7 138.9-40.2 40.2-86.9 71.7-138.9 93.7C628.2 937.5 571 949 512 949s-116.2-11.5-170.1-34.3c-52-22-98.8-53.5-138.9-93.7-40.2-40.2-71.7-86.9-93.7-138.9C86.5 628.2 75 571 75 512s11.5-116.2 34.3-170.1c22-52 53.5-98.8 93.7-138.9s86.9-71.7 138.9-93.7C395.8 86.5 453 75 512 75m0-75C229.2 0 0 229.2 0 512s229.2 512 512 512 512-229.2 512-512S794.8 0 512 0z" display="inline"/>
  </g>
  <circle id="kor_kint" cx="512" cy="512" r="506.5" fill="none" stroke="#000" stroke-miterlimit="10" stroke-width="5"/>
  <circle id="kor_bent" cx="512" cy="512" r="437.5" fill="none" stroke="#000" stroke-miterlimit="10" stroke-width="5"/>
  <path id="U" class="st3" d="M232.5 282.4v390s-6.9 117.2 82.4 182.8 189.7 53.6 197.1 54.3c7.1.7 139.8-5.1 205.9-65.9 66.1-60.8 73.5-136.3 73.5-173.4 0-37-2.8-313.2 0-387.8.3-9.2-2-19.3-47.7-18.9-52.4.5-50.1 6.5-50.3 15.7-.1 6.3 0 385.1 0 387.4 0 15.3 7.3 103.4-75.6 147.7-83.7 44.8-190.7 9.6-208.6.7s-72.4-46-77.8-130.5c-5.2-81.8-1.1-385.5-.9-404.4 0-.8-.1-1.7-.5-2.5-1.7-3.8-9-13.3-39.8-14.2-43.6-1.3-57.8-.1-57.7 19z" />
  <path id="1" class="st3" d="M614.6 126.3s-1 422.9 0 472.2c.2 7.5-1.8 20.3-42.4 20.3-45.5 0-43.6-14.2-43.6-20.3V204.9c0-3.1-3.3-5.1-6.1-3.7l-113 57.6c-5.7 2.9-12.2 3.9-18.4 2.5-6.3-1.4-12.7-5.1-13.2-14.2-1.9-33.9 2.3-46.7 12.1-52S530.7 118 530.7 118s15-8.2 27.5-8.4c29.3-.4 56.5-3.4 56.4 16.7z" />
</svg>